<?xml version="1.0" encoding="UTF-8" ?>
<!DOCTYPE svg PUBLIC "-//W3C//DTD SVG 1.1//EN" "http://www.w3.org/Graphics/SVG/1.1/DTD/svg11.dtd">
<svg width="726pt" height="572pt" viewBox="0 0 726 572" version="1.1" xmlns="http://www.w3.org/2000/svg">
<g id="#000000ff">
<path fill="#000000" opacity="1.00" d=" M 21.98 0.00 L 703.75 0.00 C 715.15 1.06 724.77 10.60 726.00 21.97 L 726.00 103.36 C 725.19 115.93 713.66 126.52 701.04 126.00 C 478.01 126.00 254.99 126.00 31.97 126.00 C 26.31 125.97 20.38 126.50 15.08 124.11 C 6.69 120.75 0.82 112.43 0.00 103.49 L 0.00 22.25 C 1.04 10.83 10.62 1.25 21.98 0.00 Z" />
<path fill="#000000" opacity="1.00" d=" M 0.00 245.24 C 1.09 232.84 12.47 222.49 24.99 223.00 C 250.32 223.00 475.66 222.99 700.99 223.01 C 713.43 222.48 724.71 232.67 726.00 244.96 L 726.00 326.38 C 725.18 338.94 713.65 349.53 701.02 349.00 C 478.00 349.00 254.98 349.00 31.96 349.00 C 26.31 348.97 20.38 349.49 15.08 347.12 C 6.68 343.75 0.79 335.41 0.00 326.44 L 0.00 245.24 Z" />
<path fill="#000000" opacity="1.00" d=" M 0.00 468.25 C 1.08 455.83 12.49 445.47 25.01 446.00 C 250.32 446.00 475.64 445.99 700.95 446.01 C 713.41 445.46 724.72 455.67 726.00 467.97 L 726.00 549.39 C 725.18 561.11 715.18 571.11 703.47 572.00 L 22.61 572.00 C 10.89 571.17 0.87 561.18 0.00 549.46 L 0.00 468.25 Z" />
</g>
</svg>
